<?xml version="1.0" standalone="no"?>
<!DOCTYPE svg PUBLIC "-//W3C//DTD SVG 20010904//EN"
 "http://www.w3.org/TR/2001/REC-SVG-20010904/DTD/svg10.dtd">
<svg version="1.0" xmlns="http://www.w3.org/2000/svg"
 width="1280.000000pt" height="1280.000000pt" viewBox="0 0 1280.000000 1280.000000"
 preserveAspectRatio="xMidYMid meet">
<metadata>
Created by potrace 1.14, written by Peter Selinger 2001-2017
</metadata>
<g transform="translate(0.000000,1280.000000) scale(0.100000,-0.100000)"
fill="#000000" stroke="none">
<path d="M6310 9233 c-36 -7 -81 -16 -100 -19 -70 -12 -118 -36 -204 -104 -34
-26 -160 -154 -173 -175 -34 -54 -87 -187 -96 -240 -3 -17 -14 -52 -25 -80
-22 -58 -34 -125 -23 -125 5 0 11 23 15 50 10 76 19 92 27 50 4 -19 4 -39 0
-45 -28 -36 -29 -73 -4 -146 14 -41 29 -78 33 -84 5 -5 11 -28 15 -50 13 -78
63 -173 104 -194 15 -9 18 -6 19 23 1 38 18 86 30 86 4 0 25 -17 46 -39 l37
-38 -26 -28 c-51 -56 -68 -94 -68 -154 0 -31 3 -66 7 -78 3 -13 8 -32 10 -43
3 -11 7 -24 10 -29 4 -5 -16 -12 -44 -16 -28 -4 -73 -21 -105 -40 -59 -36 -68
-44 -103 -89 -24 -31 -26 -17 -5 34 50 124 87 250 74 250 -4 0 -14 -28 -23
-62 -8 -35 -25 -88 -38 -118 -30 -75 -60 -177 -52 -184 3 -3 1 -6 -4 -6 -9 0
-9 -92 0 -231 l4 -75 -77 -80 c-89 -92 -151 -166 -151 -183 0 -6 -5 -11 -12
-11 -6 0 -9 -3 -6 -6 4 -3 2 -20 -3 -37 -6 -18 -12 -90 -15 -162 -3 -71 -6
-158 -7 -193 -2 -42 -8 -66 -17 -72 -12 -7 -16 -3 -21 18 -7 33 0 83 13 99 5
7 7 17 3 23 -4 6 -15 0 -28 -17 -12 -15 -33 -41 -47 -56 -38 -41 -103 -177
-99 -207 0 -3 -5 -18 -11 -35 -20 -53 -24 -150 -7 -175 8 -12 18 -17 21 -11 4
5 2 12 -4 16 -25 16 -4 157 42 275 24 63 107 185 96 143 -1 -5 2 -35 6 -69 7
-57 -5 -117 -41 -204 -3 -8 -7 -17 -8 -20 0 -3 -7 -30 -14 -60 -8 -30 -16 -59
-20 -65 -6 -11 -6 -13 -16 -59 -3 -16 -8 -33 -11 -37 -2 -4 -18 -61 -35 -126
-16 -65 -32 -125 -34 -133 -3 -13 -59 -271 -70 -321 -6 -31 -23 -84 -49 -151
-20 -56 -53 -188 -73 -298 -9 -50 -9 -50 -53 -35 -22 8 -43 14 -45 14 -3 0
-21 5 -41 10 -49 14 -60 7 -75 -47 -7 -26 -13 -49 -14 -52 -1 -3 -7 -25 -14
-50 -6 -25 -15 -52 -18 -60 -3 -8 -7 -19 -8 -25 -2 -5 -15 -50 -29 -100 -15
-49 -29 -97 -31 -105 -3 -8 -9 -31 -14 -50 -5 -19 -18 -63 -29 -97 -11 -34
-17 -64 -14 -67 3 -3 1 -6 -4 -6 -5 0 -11 -11 -12 -24 -1 -14 -11 -49 -22 -78
-11 -29 -20 -67 -20 -84 0 -31 2 -32 83 -54 45 -12 87 -23 93 -25 10 -3 10
-88 0 -171 -4 -36 -2 -43 19 -54 29 -16 29 -56 -1 -85 -42 -41 -144 -213 -144
-242 0 -7 -4 -13 -10 -13 -5 0 -12 -17 -16 -37 -11 -63 -12 -66 -24 -113 -7
-25 -13 -72 -14 -105 l-1 -60 166 -3 166 -2 12 42 c7 23 22 53 32 67 10 13 19
28 19 33 0 13 20 32 49 47 31 17 40 6 45 -54 2 -16 6 -54 11 -83 l8 -52 53 0
53 0 -4 132 c-1 73 -6 149 -9 168 -23 120 -31 148 -57 182 -37 47 -37 62 -1
55 25 -5 30 -1 52 41 35 66 83 131 98 131 6 1 12 4 12 9 0 4 10 12 22 17 18 8
25 22 30 63 9 63 25 95 43 89 15 -6 40 37 30 53 -8 12 13 70 25 70 4 0 11 11
14 25 7 27 20 32 32 13 4 -6 8 -59 10 -117 1 -58 5 -117 8 -131 4 -14 9 -36
11 -50 8 -46 11 -55 43 -122 18 -37 43 -79 57 -95 42 -47 46 -53 39 -53 -4 0
5 -9 18 -20 27 -21 47 -81 42 -126 -2 -23 -7 -61 -19 -134 0 -3 -3 -9 -6 -15
-4 -8 -5 -130 0 -173 1 -10 197 -12 963 -10 l961 3 3 55 c2 30 6 84 9 120 4
36 6 79 5 97 0 22 5 35 19 42 15 9 18 19 15 48 -2 21 0 54 4 73 7 28 4 44 -14
76 -13 23 -23 50 -23 60 1 10 -2 87 -6 169 -9 204 -10 341 -1 460 5 55 10 124
12 154 2 40 9 61 27 80 52 56 63 83 57 132 -3 26 -6 60 -5 75 0 29 1 29 58 33
22 1 85 66 92 94 3 12 4 43 1 70 -2 26 0 50 6 53 35 22 48 160 32 339 -3 33
-6 133 -8 223 -2 128 -5 165 -17 172 -7 5 -14 24 -14 42 0 18 -6 43 -13 55 -7
13 -10 35 -7 50 9 42 14 84 16 130 l1 41 32 -11 c38 -13 99 -47 108 -61 5 -8
38 -124 43 -156 10 -54 54 -139 96 -182 31 -32 43 -53 46 -83 14 -133 113
-198 263 -172 35 6 36 5 59 -46 50 -111 56 -123 73 -141 18 -19 22 -42 19
-101 -3 -79 -1 -90 15 -102 39 -28 62 -1 67 77 1 21 5 36 9 34 12 -8 20 -67
21 -160 2 -82 3 -88 30 -107 39 -30 56 -10 59 70 1 34 5 60 9 57 7 -4 20 -70
23 -117 2 -26 29 -56 52 -57 6 0 19 -9 29 -20 26 -29 63 -26 71 5 9 35 -3 201
-16 225 -6 11 -8 20 -5 20 3 0 -1 15 -9 34 -7 18 -17 52 -21 75 -4 23 -13 48
-22 56 -8 8 -11 15 -7 15 3 0 2 6 -4 13 -6 6 -11 15 -11 20 -1 13 -52 110 -83
158 -39 60 -47 145 -32 312 4 53 2 73 -10 92 -9 14 -13 25 -10 25 4 0 -10 14
-31 30 -21 17 -41 30 -46 30 -4 0 -22 28 -38 63 -39 80 -74 141 -84 145 -4 2
-5 7 -2 12 3 5 -28 42 -68 84 -41 42 -71 78 -69 81 3 3 -1 5 -9 5 -16 1 -27
15 -98 131 -29 48 -61 96 -72 107 -10 12 -19 23 -19 25 0 2 -19 24 -42 49 -98
102 -198 227 -198 247 0 6 -4 11 -8 11 -12 0 -98 156 -180 326 -24 49 -53 101
-66 115 -32 37 -108 88 -199 133 -42 22 -77 43 -77 47 0 5 -4 9 -10 9 -5 0
-31 12 -57 28 -26 15 -73 38 -103 52 -35 15 -77 47 -117 87 -34 35 -59 63 -56
63 4 0 -1 8 -10 18 -10 10 -15 21 -13 23 2 2 7 22 10 44 4 23 9 52 12 65 2 14
6 69 8 123 5 118 16 136 84 131 40 -3 42 -2 42 26 0 16 -4 32 -10 35 -5 3 -10
16 -10 29 0 12 -6 28 -12 35 -10 11 -10 13 0 7 15 -9 16 10 1 20 -8 4 -7 9 2
15 11 7 11 9 1 9 -8 0 -10 5 -5 13 4 6 9 20 10 30 2 10 12 27 23 39 30 33 30
108 -1 141 -10 12 -20 28 -21 36 -2 24 -4 34 -12 56 -5 11 -12 34 -18 50 -5
17 -15 40 -21 52 -7 16 -7 26 1 35 6 8 9 51 6 111 -3 88 -2 99 16 114 40 34
15 60 -35 38 l-30 -13 39 6 c28 4 37 2 32 -7 -7 -11 -39 -10 -104 4 -23 5 -45
2 -72 -10 -34 -15 -42 -16 -56 -4 -9 7 -24 18 -34 24 -10 5 -43 24 -72 41 -51
30 -198 89 -198 79 0 -2 -12 0 -27 6 -67 26 -148 30 -233 12z m738 -294 c-6
-16 -13 -28 -15 -25 -8 8 6 56 17 56 5 0 5 -13 -2 -31z m8 -595 c-5 -26 -3
-33 6 -28 10 5 10 4 1 -6 -6 -7 -9 -18 -7 -25 3 -6 -2 -12 -11 -12 -8 0 -15 4
-15 9 0 5 -6 6 -12 2 -7 -4 -10 -4 -6 0 3 4 3 20 -2 36 -9 31 4 52 26 43 8 -3
14 0 14 6 0 6 3 11 6 11 3 0 3 -16 0 -36z m1 -89 c-15 -6 -24 -14 -21 -18 4
-4 4 -7 1 -7 -3 0 -11 8 -16 18 -9 17 -6 19 27 19 l37 0 -28 -12z m-1102 -522
c4 -10 9 -29 11 -43 2 -14 6 -34 9 -46 3 -15 -6 -29 -35 -53 -51 -41 -155
-196 -177 -263 -3 -10 -11 -18 -19 -18 -7 0 -29 -14 -49 -31 -19 -17 -35 -27
-35 -23 0 5 -3 62 -7 126 -8 154 3 191 73 263 30 30 60 55 68 55 8 0 16 4 18
9 4 10 86 39 114 40 12 1 25 -7 29 -16z"/>
<path d="M7014 8349 c-5 -8 -3 -9 6 -4 10 6 12 4 7 -8 -8 -22 2 -49 15 -41 6
4 5 10 -3 15 -11 7 -12 11 -1 17 10 7 10 11 -2 21 -11 9 -16 9 -22 0z"/>
<path d="M5684 8413 c7 -63 14 -105 30 -168 3 -11 13 -59 23 -107 10 -49 22
-88 26 -88 5 0 6 8 3 18 -5 16 -15 66 -21 102 -1 8 -5 22 -8 30 -13 35 -38
171 -40 218 -1 29 -6 52 -11 52 -4 0 -5 -26 -2 -57z"/>
<path d="M5755 7980 c0 -33 3 -60 8 -60 4 0 7 27 7 60 0 33 -3 60 -7 60 -5 0
-8 -27 -8 -60z"/>
<path d="M11880 3480 c-9 -6 -10 -10 -3 -10 6 0 15 5 18 10 8 12 4 12 -15 0z"/>
</g>
</svg>
