<?xml version="1.0" encoding="UTF-8" standalone="no"?>
<svg
   role="img"
   viewBox="0 0 24 24"
   version="1.1"
   id="svg6"
   sodipodi:docname="linkedin-org.svg"
   inkscape:version="1.1 (c68e22c387, 2021-05-23)"
   xmlns:inkscape="http://www.inkscape.org/namespaces/inkscape"
   xmlns:sodipodi="http://sodipodi.sourceforge.net/DTD/sodipodi-0.dtd"
   xmlns="http://www.w3.org/2000/svg"
   xmlns:svg="http://www.w3.org/2000/svg"
   xmlns:rdf="http://www.w3.org/1999/02/22-rdf-syntax-ns#"
   xmlns:cc="http://creativecommons.org/ns#"
   xmlns:dc="http://purl.org/dc/elements/1.1/">
  <defs
     id="defs10" />
  <sodipodi:namedview
     id="namedview8"
     pagecolor="#ffffff"
     bordercolor="#999999"
     borderopacity="1"
     inkscape:pageshadow="0"
     inkscape:pageopacity="0"
     inkscape:pagecheckerboard="0"
     showgrid="false"
     inkscape:zoom="4.46875"
     inkscape:cx="-7.4965035"
     inkscape:cy="23.608392"
     inkscape:window-width="1920"
     inkscape:window-height="1017"
     inkscape:window-x="-8"
     inkscape:window-y="-8"
     inkscape:window-maximized="1"
     inkscape:current-layer="svg6" />
  <title
     id="title2">LinkedIn icon</title>
  <path
     d="m 20.447,20.452 h -3.554 v -5.569 c 0,-1.328 -0.027,-3.037 -1.852,-3.037 -1.853,0 -2.136,1.445 -2.136,2.939 v 5.667 H 9.351 V 9 h 3.414 v 1.561 h 0.046 c 0.477,-0.9 1.637,-1.85 3.37,-1.85 3.601,0 4.267,2.37 4.267,5.455 v 6.286 z M 5.337,7.433 c -1.144,0 -2.063,-0.926 -2.063,-2.065 0,-1.138 0.92,-2.063 2.063,-2.063 1.14,0 2.064,0.925 2.064,2.063 0,1.139 -0.925,2.065 -2.064,2.065 z M 7.119,20.452 H 3.555 V 9 H 7.119 Z M 22.225,0 H 1.771 C 0.792,0 0,0.774 0,1.729 V 22.271 C 0,23.227 0.792,24 1.771,24 H 22.222 C 23.2,24 24,23.227 24,22.271 V 1.729 C 24,0.774 23.2,0 22.222,0 Z"
     id="path4"
     style="fill:#ffffff;fill-opacity:1" />
  <metadata
     id="metadata12">
    <rdf:RDF>
      <cc:Work
         rdf:about="">
        <dc:title>LinkedIn icon</dc:title>
      </cc:Work>
    </rdf:RDF>
  </metadata>
</svg>
