<?xml version="1.0" encoding="UTF-8" standalone="no"?>
<svg
   role="img"
   viewBox="0 0 24 24"
   version="1.1"
   id="svg6"
   sodipodi:docname="mail-org.svg"
   inkscape:version="1.1 (c68e22c387, 2021-05-23)"
   xmlns:inkscape="http://www.inkscape.org/namespaces/inkscape"
   xmlns:sodipodi="http://sodipodi.sourceforge.net/DTD/sodipodi-0.dtd"
   xmlns="http://www.w3.org/2000/svg"
   xmlns:svg="http://www.w3.org/2000/svg"
   xmlns:rdf="http://www.w3.org/1999/02/22-rdf-syntax-ns#"
   xmlns:cc="http://creativecommons.org/ns#"
   xmlns:dc="http://purl.org/dc/elements/1.1/">
  <defs
     id="defs10" />
  <sodipodi:namedview
     id="namedview8"
     pagecolor="#ffffff"
     bordercolor="#999999"
     borderopacity="1"
     inkscape:pageshadow="0"
     inkscape:pageopacity="0"
     inkscape:pagecheckerboard="0"
     showgrid="false"
     inkscape:zoom="17.875"
     inkscape:cx="3.3286713"
     inkscape:cy="15.804196"
     inkscape:window-width="1920"
     inkscape:window-height="1017"
     inkscape:window-x="-8"
     inkscape:window-y="-8"
     inkscape:window-maximized="1"
     inkscape:current-layer="svg6" />
  <title
     id="title2">ProtonMail</title>
  <path
     d="M12 20.351s-1.096-.108-1.955-.705c-.86-.596-6.58-4.688-6.58-4.688v8.098S3.513 24 4.55 24h14.9c1.036 0 1.085-.942 1.085-.942v-8.1s-5.723 4.092-6.58 4.69c-.86.595-1.955.704-1.955.704zm0-20.35S4.925-.23 3.465 7.623v5.35s.06.572 1.67 1.735c1.607 1.162 5.773 4.436 6.867 4.436 1.088 0 5.254-3.273 6.865-4.437 1.607-1.164 1.668-1.737 1.668-1.737V7.62C19.075-.229 12 .003 12 .003zm4.846 10.536h-9.69V7.623C8.14 3.723 12 3.67 12 3.67s3.863.054 4.846 3.954z"
     id="path4"
     clip-path="none"
     mask="none"
     style="fill:#ffffff;fill-opacity:1" />
  <metadata
     id="metadata1322">
    <rdf:RDF>
      <cc:Work
         rdf:about="">
        <dc:title>ProtonMail</dc:title>
      </cc:Work>
    </rdf:RDF>
  </metadata>
</svg>
